<?xml version="1.0" encoding="utf-8"?>
<!-- Generator: Adobe Illustrator 15.0.0, SVG Export Plug-In . SVG Version: 6.00 Build 0)  -->
<!DOCTYPE svg PUBLIC "-//W3C//DTD SVG 1.1//EN" "http://www.w3.org/Graphics/SVG/1.1/DTD/svg11.dtd">
<svg version="1.1" id="Camada_1" xmlns="http://www.w3.org/2000/svg" xmlns:xlink="http://www.w3.org/1999/xlink" x="0px" y="0px"
	 viewBox="300 200 200 200" enable-background="new 300 200 200 200" xml:space="preserve">
<g>
	<g>
		<path fill="#FFFFFF" d="M429.934,279.388c-19.304,0-35.009-15.702-35.009-35.009c0-19.302,15.705-35.01,35.009-35.01
			c19.303,0,35.009,15.708,35.009,35.01C464.942,263.683,449.236,279.388,429.934,279.388L429.934,279.388z M429.934,217.146
			c-15.017,0-27.225,12.213-27.225,27.228c0,15.015,12.213,27.229,27.225,27.229c15.013,0,27.229-12.214,27.229-27.23
			C457.167,229.363,444.946,217.146,429.934,217.146L429.934,217.146z"/>
	</g>
	<g>
		<path fill="#FFFFFF" d="M399.779,396.087c-25.975,0-50.394-10.11-68.767-28.483c-18.367-18.362-28.482-42.791-28.482-68.771
			c0-41.157,26.058-78.01,64.847-91.719l5.187-1.833l-0.02,132.455c0,15.014,12.216,27.227,27.23,27.227
			c15.02,0,27.23-12.213,27.23-27.227c0-15.016-12.211-27.235-27.23-27.235h-19.448v-23.33h116.076l0.296,3.563
			c0.221,2.678,0.333,5.406,0.333,8.1c0,25.98-10.116,50.403-28.485,68.771C450.181,385.977,425.764,396.087,399.779,396.087
			L399.779,396.087z M364.787,216.471c-32.802,13.94-54.477,46.366-54.477,82.366c0,49.339,40.139,89.471,89.47,89.471
			c49.338,0,89.471-40.132,89.471-89.471c0-1.286-0.028-2.587-0.083-3.882H388.114v7.777h11.665
			c19.31,0,35.015,15.707,35.015,35.011c0,19.305-15.705,35.006-35.015,35.006c-19.302,0-35.007-15.703-35.007-35.009
			L364.787,216.471L364.787,216.471z"/>
	</g>
</g>
</svg>
